<svg id="Capa_1" enable-background="new 0 0 512 512" height="512" viewBox="0 0 512 512" width="512" xmlns="http://www.w3.org/2000/svg"><g><path d="m418.922 442.374c-8.578 0-15.531-6.954-15.531-15.531v-31.063h31.062v31.062c0 8.578-6.953 15.532-15.531 15.532z" fill="#365e7d"/><path d="m418.391 426.842v-31.062h-15v31.062c0 8.578 6.953 15.531 15.531 15.531 2.72 0 5.277-.699 7.5-1.928-4.788-2.645-8.031-7.745-8.031-13.603z" fill="#2b4d66"/><path d="m434.453 116.22h-31.062v-15.531c0-8.578 6.953-15.531 15.531-15.531 8.578 0 15.531 6.954 15.531 15.531z" fill="#365e7d"/><path d="m426.422 87.086c-2.223-1.229-4.78-1.928-7.5-1.928-8.578 0-15.531 6.953-15.531 15.531v15.531h15v-15.531c0-5.858 3.243-10.958 8.031-13.603z" fill="#2b4d66"/><path d="m395.469 116.22h46.907v279.56h-46.907z" fill="#f9d264"/><path d="m395.472 116.22h20v279.56h-20z" fill="#efc356"/><path d="m38.566 38.564h326.154v465.934h-326.154z" fill="#365e7d"/><path d="m38.562 38.56h31.07v465.94h-31.07z" fill="#2b4d66"/><path d="m69.628 69.63h264.03v403.81h-264.03z" fill="#eaf6ff"/><path d="m232.706 38.564c0-17.155-13.907-31.062-31.062-31.062-17.155 0-31.062 13.907-31.062 31.062h-54.359v14.593c0 17.673 14.327 32 32 32h106.842c17.673 0 32-14.327 32-32v-14.593z" fill="#f9d264"/><path d="m168.222 85.16h-20c-17.67 0-32-14.33-32-32v-14.6h20v14.6c0 17.67 14.33 32 32 32z" fill="#efc356"/><g fill="#9bd8f9"><path d="m100.691 195h62.125v62.125h-62.125z"/><path d="m100.691 288.187h62.125v62.125h-62.125z"/><path d="m100.691 381.374h62.125v62.125h-62.125z"/></g><g><path d="m364.722 31.06h-125.252c-3.5-17.685-19.131-31.06-37.828-31.06-20.438 1.717-33.049 12.071-37.835 31.06h-125.245c-4.142 0-7.5 3.358-7.5 7.5v356.41c0 4.142 3.358 7.5 7.5 7.5s7.5-3.358 7.5-7.5v-348.91h62.66c-.273 5.392.074 10.749 1.04 16.07h-40.13c-4.142 0-7.5 3.358-7.5 7.5v403.81c0 4.142 3.358 7.5 7.5 7.5h264.03c4.142 0 7.5-3.358 7.5-7.5v-403.81c0-4.142-3.358-7.5-7.5-7.5h-40.14c.966-5.321 1.312-10.677 1.04-16.07h62.66v450.94h-311.16v-69.35c0-4.142-3.358-7.5-7.5-7.5s-7.5 3.358-7.5 7.5v76.85c0 4.142 3.358 7.5 7.5 7.5h326.16c4.142 0 7.5-3.358 7.5-7.5v-465.94c0-4.142-3.357-7.5-7.5-7.5zm-109.66 46.6h-37.07c-4.142 0-7.5 3.358-7.5 7.5s3.358 7.5 7.5 7.5h37.07c12.772 0 24.141-6.098 31.366-15.53h39.734v388.81h-249.03v-388.81h39.724c7.225 9.432 18.594 15.53 31.366 15.53h37.08c4.142 0 7.5-3.358 7.5-7.5s-3.358-7.5-7.5-7.5h-37.08c-17.383 0-23.969-13.66-24.5-31.6h46.86c4.142 0 7.5-3.358 7.5-7.5 1.351-14.355 9.205-22.209 23.56-23.56 12.991 0 23.56 10.569 23.56 23.56 0 4.142 3.358 7.5 7.5 7.5h46.86c.697 13.94-6.226 31.598-24.5 31.6z"/><path d="m458.438 155.313h-8.565v-39.093c0-4.142-3.358-7.5-7.5-7.5h-.419v-8.032c0-12.699-10.332-23.031-23.031-23.031s-23.031 10.332-23.031 23.031v8.032h-.419c-4.142 0-7.5 3.358-7.5 7.5v279.56c0 4.142 3.358 7.5 7.5 7.5h.419v23.563c0 10.074 6.504 18.652 15.531 21.771v15.41c0 4.142 3.358 7.5 7.5 7.5s7.5-3.358 7.5-7.5v-15.41c9.027-3.119 15.531-11.697 15.531-21.771v-23.563h.419c4.142 0 7.5-3.358 7.5-7.5v-29.77c0-4.142-3.358-7.5-7.5-7.5s-7.5 3.358-7.5 7.5v22.27h-31.9v-217.967h31.9v163.007c0 4.142 3.358 7.5 7.5 7.5s7.5-3.358 7.5-7.5v-163.007h8.565c4.136 0 7.5 3.364 7.5 7.5v78.187c0 4.142 3.358 7.5 7.5 7.5s7.5-3.358 7.5-7.5v-78.187c0-12.406-10.094-22.5-22.5-22.5zm-47.547-54.625c0-4.428 3.603-8.031 8.031-8.031s8.031 3.603 8.031 8.031v8.031h-16.062zm16.062 326.154c0 4.428-3.603 8.031-8.031 8.031-4.428 0-8.031-3.603-8.031-8.031v-23.562h16.062zm-23.981-271.529v-31.593h31.9v31.593z"/><path d="m162.816 373.874h-62.125c-4.142 0-7.5 3.358-7.5 7.5v62.125c0 4.142 3.358 7.5 7.5 7.5h62.125c4.142 0 7.5-3.358 7.5-7.5v-62.125c0-4.143-3.358-7.5-7.5-7.5zm-7.5 62.124h-47.125v-47.125h47.125z"/><path d="m188.574 158.635-28.865 28.865h-59.018c-4.069 0-7.501 3.433-7.5 7.503v62.122c0 4.142 3.358 7.5 7.5 7.5h62.125c4.142 0 7.5-3.358 7.5-7.5v-59.018l28.865-28.865c2.929-2.929 2.929-7.678 0-10.606-2.928-2.93-7.677-2.93-10.607-.001zm-43.865 43.865-12.956 12.956-12.955-12.956zm10.607 47.125h-47.125v-36.518l18.259 18.259c3.535 2.929 7.071 2.929 10.606 0l18.259-18.259v36.518z"/><path d="m188.574 250.697-29.99 29.99h-57.894c-5.564.188-7.5 2.384-7.5 7.5v62.125c0 4.142 3.358 7.5 7.5 7.5h62.125c4.142 0 7.5-3.358 7.5-7.5v-60.143l28.865-28.865c2.929-2.929 2.929-7.678 0-10.606-2.928-2.93-7.677-2.93-10.606-.001zm-44.989 44.99-11.832 11.832-11.831-11.832zm11.731 47.124h-47.125v-37.642l18.259 18.259c3.535 2.929 7.071 2.929 10.606 0l18.259-18.259v37.642z"/><path d="m217.44 224.938c0 4.142 3.358 7.5 7.5 7.5h62.124c4.142 0 7.5-3.358 7.5-7.5s-3.358-7.5-7.5-7.5h-62.124c-4.142 0-7.5 3.358-7.5 7.5z"/><path d="m287.064 248.5h-62.124c-4.142 0-7.5 3.358-7.5 7.5s3.358 7.5 7.5 7.5h62.124c4.142 0 7.5-3.358 7.5-7.5s-3.358-7.5-7.5-7.5z"/><path d="m287.064 310.685h-62.124c-4.142 0-7.5 3.358-7.5 7.5s3.358 7.5 7.5 7.5h62.124c4.142 0 7.5-3.358 7.5-7.5s-3.358-7.5-7.5-7.5z"/><path d="m287.064 341.748h-62.124c-4.142 0-7.5 3.358-7.5 7.5s3.358 7.5 7.5 7.5h62.124c4.142 0 7.5-3.358 7.5-7.5s-3.358-7.5-7.5-7.5z"/><path d="m287.064 403.872h-62.124c-4.142 0-7.5 3.358-7.5 7.5s3.358 7.5 7.5 7.5h62.124c4.142 0 7.5-3.358 7.5-7.5s-3.358-7.5-7.5-7.5z"/><path d="m287.064 434.934h-62.124c-4.142 0-7.5 3.358-7.5 7.5s3.358 7.5 7.5 7.5h62.124c4.142 0 7.5-3.358 7.5-7.5s-3.358-7.5-7.5-7.5z"/><path d="m124.253 131.751c0 4.142 3.358 7.5 7.5 7.5h139.78c4.142 0 7.5-3.358 7.5-7.5s-3.358-7.5-7.5-7.5h-139.78c-4.142 0-7.5 3.358-7.5 7.5z"/></g></g></svg>